<?xml version="1.0" encoding="UTF-8"?>
<svg width="12px" height="9px" viewBox="0 0 12 9" version="1.1" xmlns="http://www.w3.org/2000/svg" xmlns:xlink="http://www.w3.org/1999/xlink">
    <!-- Generator: Sketch 52.2 (67145) - http://www.bohemiancoding.com/sketch -->
    <title>icon_correct</title>
    <desc>Created with Sketch.</desc>
    <g id="作业考试优化" stroke="none" stroke-width="1" fill="none" fill-rule="evenodd">
        <g id="考试-结果-已批阅" transform="translate(-32.000000, -1189.000000)" fill="#09BB07" fill-rule="nonzero">
            <g id="答案解析" transform="translate(16.000000, 743.000000)">
                <g id="题目-copy-4" transform="translate(0.000000, 358.000000)">
                    <g id="单选项/未选中-一行内容" transform="translate(16.000000, 80.000000)">
                        <g id="对" transform="translate(0.000000, 8.000000)">
                            <path d="M11.7349629,1.54482848 L5.2683053,8.01150559 L5.26812955,8.01170088 C4.97000612,8.30990242 4.51541965,8.35645857 4.16837711,8.15148651 C4.10273138,8.11263127 4.04223796,8.06566686 3.98832353,8.01170088 C3.98828447,8.01162276 3.98820636,8.01158371 3.98820636,8.01158371 L0.265041997,4.28841934 C-0.0883473322,3.93501049 -0.0883473322,3.36198313 0.265041997,3.00851568 C0.618431325,2.65512636 1.19147821,2.65512636 1.54486754,3.00851568 L4.62827536,6.0919235 L10.4551569,0.265041997 C10.8086048,-0.0883473322 11.3816321,-0.0883473322 11.735041,0.265041997 C12.0883327,0.618431325 12.0883327,1.19143916 11.7349629,1.54482848 Z" id="icon_correct"></path>
                        </g>
                    </g>
                </g>
            </g>
        </g>
    </g>
</svg>