<?xml version="1.0" encoding="UTF-8"?>
<svg width="12px" height="12px" viewBox="0 0 12 12" version="1.1" xmlns="http://www.w3.org/2000/svg" xmlns:xlink="http://www.w3.org/1999/xlink">
    <!-- Generator: Sketch 52.2 (67145) - http://www.bohemiancoding.com/sketch -->
    <title>icon_error</title>
    <desc>Created with Sketch.</desc>
    <g id="作业考试优化" stroke="none" stroke-width="1" fill="none" fill-rule="evenodd">
        <g id="考试-结果-已批阅" transform="translate(-31.000000, -1227.000000)" fill="#E64340" fill-rule="nonzero">
            <g id="答案解析" transform="translate(16.000000, 743.000000)">
                <g id="题目-copy-4" transform="translate(0.000000, 358.000000)">
                    <g id="单选项/未选中-一行内容-copy" transform="translate(15.000000, 120.000000)">
                        <path d="M6.01249315,10.9633614 L10.733586,6.24226859 C11.0232957,5.95255886 11.493008,5.95255886 11.7827177,6.24226859 C12.0724274,6.53197832 12.0724274,7.0016906 11.7827177,7.29140033 L7.06162488,12.0124931 L11.7577314,16.7085997 C12.0474411,16.9983094 12.0474411,17.4680217 11.7577314,17.7577314 C11.4680217,18.0474411 10.9983094,18.0474411 10.7085997,17.7577314 L6.01249315,13.0616249 L1.29140033,17.7827177 C1.0016906,18.0724274 0.531978319,18.0724274 0.242268589,17.7827177 C-0.0474411403,17.493008 -0.0474411403,17.0232957 0.242268589,16.733586 L4.96336141,12.0124931 L0.217282297,7.26641403 C-0.0724274324,6.97670431 -0.0724274324,6.50699203 0.217282297,6.2172823 C0.506992027,5.92757257 0.976704305,5.92757257 1.26641403,6.2172823 L6.01249315,10.9633614 Z" id="icon_error"></path>
                    </g>
                </g>
            </g>
        </g>
    </g>
</svg>